<?xml version="1.0" encoding="utf-8" standalone="no"?>
<!DOCTYPE svg PUBLIC "-//W3C//DTD SVG 1.1//EN"
  "http://www.w3.org/Graphics/SVG/1.1/DTD/svg11.dtd">
<svg xmlns:xlink="http://www.w3.org/1999/xlink" width="141.456pt" height="144.36pt" viewBox="0 0 141.456 144.36" xmlns="http://www.w3.org/2000/svg" version="1.1">
 <metadata>
  <rdf:RDF xmlns:dc="http://purl.org/dc/elements/1.1/" xmlns:cc="http://creativecommons.org/ns#" xmlns:rdf="http://www.w3.org/1999/02/22-rdf-syntax-ns#">
   <cc:Work>
    <dc:type rdf:resource="http://purl.org/dc/dcmitype/StillImage"/>
    <dc:date>2026-06-07T12:48:26.431281</dc:date>
    <dc:format>image/svg+xml</dc:format>
    <dc:creator>
     <cc:Agent>
      <dc:title>Matplotlib v3.10.9, https://matplotlib.org/</dc:title>
     </cc:Agent>
    </dc:creator>
   </cc:Work>
  </rdf:RDF>
 </metadata>
 <defs>
  <style type="text/css">*{stroke-linejoin: round; stroke-linecap: butt}</style>
 </defs>
 <g id="figure_1">
  <g id="patch_1">
   <path d="M 0 144.36 
L 141.456 144.36 
L 141.456 0 
L 0 0 
L 0 144.36 
z
" style="fill: none"/>
  </g>
  <g id="axes_1">
   <g id="patch_2">
    <path d="M 46.776 67.68 
C 51.549656 67.68 56.128438 65.783406 59.503922 62.407922 
C 62.879406 59.032438 64.776 54.453656 64.776 49.68 
C 64.776 44.906344 62.879406 40.327562 59.503922 36.952078 
C 56.128438 33.576594 51.549656 31.68 46.776 31.68 
C 42.002344 31.68 37.423562 33.576594 34.048078 36.952078 
C 30.672594 40.327562 28.776 44.906344 28.776 49.68 
C 28.776 54.453656 30.672594 59.032438 34.048078 62.407922 
C 37.423562 65.783406 42.002344 67.68 46.776 67.68 
L 46.776 67.68 
z
" clip-path="url(#p7953dd952a)" style="fill: none; stroke: #000000; stroke-width: 2; stroke-linejoin: miter"/>
   </g>
   <g id="line2d_1">
    <path d="M 46.776 94.68 
L 46.776 49.68 
L 124.718286 94.68 
L 46.776 139.68 
L 46.776 94.68 
M 124.718286 94.68 
" clip-path="url(#p7953dd952a)" style="fill: none; stroke: #000000; stroke-width: 2; stroke-linecap: round"/>
   </g>
   <g id="line2d_2">
    <path d="M 52.918786 72.18 
L 60.118786 72.18 
" clip-path="url(#p7953dd952a)" style="fill: none; stroke: #000000; stroke-width: 2; stroke-linecap: round"/>
   </g>
   <g id="line2d_3">
    <path d="M 52.918786 117.18 
L 60.118786 117.18 
" clip-path="url(#p7953dd952a)" style="fill: none; stroke: #000000; stroke-width: 2; stroke-linecap: round"/>
   </g>
   <g id="line2d_4">
    <path d="M 56.518786 120.78 
L 56.518786 113.58 
" clip-path="url(#p7953dd952a)" style="fill: none; stroke: #000000; stroke-width: 2; stroke-linecap: round"/>
   </g>
   <g id="line2d_5">
    <path d="M 124.718286 94.68 
L 85.747143 94.68 
L 46.776 94.68 
" clip-path="url(#p7953dd952a)" style="fill: none; stroke: #000000; stroke-width: 2; stroke-linecap: round"/>
   </g>
   <g id="line2d_6">
    <path d="M 46.776 94.68 
L 46.776 67.68 
L 46.776 67.68 
M 46.776 31.68 
L 46.776 31.68 
L 46.776 4.68 
" clip-path="url(#p7953dd952a)" style="fill: none; stroke: #000000; stroke-width: 2; stroke-linecap: round"/>
   </g>
   <g id="line2d_7">
    <path d="M 55.776 49.68 
L 55.026 47.816503 
L 54.276 46.08 
L 53.526 44.588831 
L 52.776 43.444617 
L 52.026 42.725334 
L 51.276 42.48 
L 50.526 42.725334 
L 49.776 43.444617 
L 49.026 44.588831 
L 48.276 46.08 
L 47.526 47.816503 
L 46.776 49.68 
L 46.026 51.543497 
L 45.276 53.28 
L 44.526 54.771169 
L 43.776 55.915383 
L 43.026 56.634666 
L 42.276 56.88 
L 41.526 56.634666 
L 40.776 55.915383 
L 40.026 54.771169 
L 39.276 53.28 
L 38.526 51.543497 
L 37.776 49.68 
" clip-path="url(#p7953dd952a)" style="fill: none; stroke: #000000; stroke-width: 2; stroke-linecap: round"/>
   </g>
   <g id="line2d_8">
    <path d="M 46.776 4.68 
L 91.776 4.68 
L 136.776 4.68 
" clip-path="url(#p7953dd952a)" style="fill: none; stroke: #000000; stroke-width: 2; stroke-linecap: round"/>
   </g>
   <g id="text_1">
    <!-- OA1 -->
    <g transform="translate(71.117143 43.168437) scale(0.14 -0.14)">
     <defs>
      <path id="DejaVuSans-4f" d="M 2522 4238 
Q 1834 4238 1429 3725 
Q 1025 3213 1025 2328 
Q 1025 1447 1429 934 
Q 1834 422 2522 422 
Q 3209 422 3611 934 
Q 4013 1447 4013 2328 
Q 4013 3213 3611 3725 
Q 3209 4238 2522 4238 
z
M 2522 4750 
Q 3503 4750 4090 4092 
Q 4678 3434 4678 2328 
Q 4678 1225 4090 567 
Q 3503 -91 2522 -91 
Q 1538 -91 948 565 
Q 359 1222 359 2328 
Q 359 3434 948 4092 
Q 1538 4750 2522 4750 
z
" transform="scale(0.015625)"/>
      <path id="DejaVuSans-41" d="M 2188 4044 
L 1331 1722 
L 3047 1722 
L 2188 4044 
z
M 1831 4666 
L 2547 4666 
L 4325 0 
L 3669 0 
L 3244 1197 
L 1141 1197 
L 716 0 
L 50 0 
L 1831 4666 
z
" transform="scale(0.015625)"/>
      <path id="DejaVuSans-31" d="M 794 531 
L 1825 531 
L 1825 4091 
L 703 3866 
L 703 4441 
L 1819 4666 
L 2450 4666 
L 2450 531 
L 3481 531 
L 3481 0 
L 794 0 
L 794 531 
z
" transform="scale(0.015625)"/>
     </defs>
     <use xlink:href="#DejaVuSans-4f"/>
     <use xlink:href="#DejaVuSans-41" transform="translate(76.960938 0)"/>
     <use xlink:href="#DejaVuSans-31" transform="translate(145.369141 0)"/>
    </g>
   </g>
   <g id="text_2">
    <!-- Vin -->
    <g transform="translate(3.15225 53.543125) scale(0.14 -0.14)">
     <defs>
      <path id="DejaVuSans-56" d="M 1831 0 
L 50 4666 
L 709 4666 
L 2188 738 
L 3669 4666 
L 4325 4666 
L 2547 0 
L 1831 0 
z
" transform="scale(0.015625)"/>
      <path id="DejaVuSans-69" d="M 603 3500 
L 1178 3500 
L 1178 0 
L 603 0 
L 603 3500 
z
M 603 4863 
L 1178 4863 
L 1178 4134 
L 603 4134 
L 603 4863 
z
" transform="scale(0.015625)"/>
      <path id="DejaVuSans-6e" d="M 3513 2113 
L 3513 0 
L 2938 0 
L 2938 2094 
Q 2938 2591 2744 2837 
Q 2550 3084 2163 3084 
Q 1697 3084 1428 2787 
Q 1159 2491 1159 1978 
L 1159 0 
L 581 0 
L 581 3500 
L 1159 3500 
L 1159 2956 
Q 1366 3272 1645 3428 
Q 1925 3584 2291 3584 
Q 2894 3584 3203 3211 
Q 3513 2838 3513 2113 
z
" transform="scale(0.015625)"/>
     </defs>
     <use xlink:href="#DejaVuSans-56"/>
     <use xlink:href="#DejaVuSans-69" transform="translate(66.158203 0)"/>
     <use xlink:href="#DejaVuSans-6e" transform="translate(93.941406 0)"/>
    </g>
   </g>
  </g>
 </g>
 <defs>
  <clipPath id="p7953dd952a">
   <rect x="0" y="0" width="141.456" height="144.36"/>
  </clipPath>
 </defs>
</svg>
